# xmcd
#
# Track frame offsets: 
#        150
#        15861
#        32385
#        47067
#        64438
#        82904
#        104770
#        124840
#        147939
#        162603
#        177614
#        197080
#        213244
#        226231
#        240373
#        253194
#
# Disc length: 3561 seconds
#
# Revision: 0
# Processed by: cddbd v1.5.2PL0 Copyright (c) Steve Scherf et al.
# Submitted via: ExactAudioCopy v1.0b4
#
DISCID=dc0de710
DTITLE=Hamo and Tribute 2 Love - Dve
DYEAR=2013
DGENRE=Blues Rock
TTITLE0=Scotch
TTITLE1=Wish You Well
TTITLE2=Days Like This
TTITLE3=Falling
TTITLE4=Heart To Play On
TTITLE5=Lj Woman
TTITLE6=Country (Still In Love)
TTITLE7=Lost My Faith
TTITLE8=Do You Beleive In Love
TTITLE9=Vija Vaja Ven
TTITLE10=Lazy Blueser
TTITLE11=Superstar
TTITLE12=Gun In Love
TTITLE13=Lady G
TTITLE14=Gremo Se Igrat Boga
TTITLE15=Rozice
EXTD=
EXTT0=
EXTT1=
EXTT2=
EXTT3=
EXTT4=
EXTT5=
EXTT6=
EXTT7=
EXTT8=
EXTT9=
EXTT10=
EXTT11=
EXTT12=
EXTT13=
EXTT14=
EXTT15=
PLAYORDER=
